<?xml version="1.0" encoding="UTF-8"?>
<svg xmlns="http://www.w3.org/2000/svg" xmlns:xlink="http://www.w3.org/1999/xlink" width="50px" height="50px" viewBox="0 0 50 50" version="1.1">
<defs>
<clipPath id="clip1">
  <path d="M 14.269531 15.378906 L 35.769531 15.378906 L 35.769531 34.582031 L 14.269531 34.582031 Z M 14.269531 15.378906 "/>
</clipPath>
</defs>
<g id="surface1">
<g clip-path="url(#clip1)" clip-rule="nonzero">
<path style=" stroke:none;fill-rule:nonzero;fill:rgb(43.529412%,43.529412%,43.529412%);fill-opacity:1;" d="M 25.191406 29.539062 C 26.714844 29.539062 27.949219 28.304688 27.949219 26.78125 C 27.949219 25.257812 26.714844 24.023438 25.191406 24.023438 C 23.667969 24.023438 22.433594 25.257812 22.433594 26.78125 C 22.433594 28.304688 23.667969 29.539062 25.191406 29.539062 Z M 25.191406 20.894531 C 26.714844 20.894531 27.949219 19.660156 27.949219 18.136719 C 27.949219 16.613281 26.714844 15.378906 25.191406 15.378906 C 23.667969 15.378906 22.433594 16.613281 22.433594 18.136719 C 22.433594 19.660156 23.667969 20.894531 25.191406 20.894531 Z M 18.933594 31.28125 C 19.652344 31.28125 20.328125 31.117188 20.933594 30.828125 C 19.902344 29.773438 19.269531 28.324219 19.269531 26.730469 C 19.269531 25.0625 19.960938 23.558594 21.078125 22.488281 C 20.4375 22.15625 19.707031 21.96875 18.933594 21.96875 C 16.359375 21.96875 14.277344 24.050781 14.277344 26.625 C 14.277344 29.195312 16.363281 31.28125 18.933594 31.28125 Z M 29.285156 30.898438 C 29.851562 31.144531 30.476562 31.28125 31.136719 31.28125 C 33.707031 31.28125 35.792969 29.195312 35.792969 26.625 C 35.792969 24.054688 33.707031 21.96875 31.136719 21.96875 C 30.367188 21.96875 29.644531 22.15625 29.121094 22.410156 C 30.289062 23.484375 31.019531 25.023438 31.019531 26.734375 C 31.019531 28.359375 30.355469 29.835938 29.285156 30.898438 Z M 27.289062 32.378906 C 26.132812 32.742188 24.191406 32.871094 22.894531 32.378906 L 25.070312 34.648438 Z M 27.289062 32.378906 "/>
</g>
</g>
</svg>
