<svg xmlns="http://www.w3.org/2000/svg" xmlns:xlink="http://www.w3.org/1999/xlink" width="500" zoomAndPan="magnify" viewBox="0 0 375 374.999991" height="500" preserveAspectRatio="xMidYMid meet" version="1.0"><defs><clipPath id="388b71ce57"><path d="M 107.011719 115.351562 L 268.261719 115.351562 L 268.261719 259.351562 L 107.011719 259.351562 Z M 107.011719 115.351562 " clip-rule="nonzero"/></clipPath></defs><g clip-path="url(#388b71ce57)"><path fill="#6f6f6f" d="M 188.933594 221.546875 C 200.347656 221.546875 209.613281 212.289062 209.613281 200.863281 C 209.613281 189.4375 200.347656 180.179688 188.933594 180.179688 C 177.507812 180.179688 168.25 189.4375 168.25 200.863281 C 168.25 212.289062 177.507812 221.546875 188.933594 221.546875 Z M 188.933594 156.722656 C 200.347656 156.722656 209.613281 147.464844 209.613281 136.039062 C 209.613281 124.613281 200.347656 115.351562 188.933594 115.351562 C 177.507812 115.351562 168.25 124.613281 168.25 136.039062 C 168.25 147.464844 177.507812 156.722656 188.933594 156.722656 Z M 142.011719 234.597656 C 147.382812 234.597656 152.46875 233.382812 157 231.21875 C 149.28125 223.292969 144.511719 212.445312 144.511719 200.492188 C 144.511719 187.980469 149.71875 176.691406 158.09375 168.675781 C 153.277344 166.175781 147.8125 164.761719 141.992188 164.761719 C 122.707031 164.761719 107.082031 180.394531 107.082031 199.675781 C 107.09375 218.96875 122.722656 234.597656 142.011719 234.597656 Z M 219.640625 231.734375 C 223.890625 233.578125 228.582031 234.597656 233.515625 234.597656 C 252.800781 234.597656 268.4375 218.96875 268.4375 199.683594 C 268.4375 180.402344 252.800781 164.765625 233.515625 164.765625 C 227.75 164.765625 222.320312 166.164062 218.421875 168.089844 C 227.15625 176.140625 232.636719 187.675781 232.636719 200.5 C 232.636719 212.707031 227.667969 223.761719 219.640625 231.734375 Z M 204.679688 242.835938 C 195.984375 245.566406 181.449219 246.519531 171.707031 242.835938 L 188.019531 259.859375 Z M 204.679688 242.835938 " fill-opacity="1" fill-rule="nonzero"/></g></svg>